<svg width="20" height="20" viewBox="0 0 20 20" version="1.1" xmlns="http://www.w3.org/2000/svg" xmlns:xlink="http://www.w3.org/1999/xlink" xmlns:figma="http://www.figma.com/figma/ns">
<title>Icon Feedback</title>
<desc>Created using Figma</desc>
<g id="Canvas" transform="translate(-1004 -201)" figma:type="canvas">
<g id="Icon Feedback" figma:type="frame">
<g id="Background" figma:type="ellipse">
<use xlink:href="#path0_fill" transform="translate(1004 201)" fill="#F2F2F2"/>
</g>
<g id="Vector" figma:type="vector">
<use xlink:href="#path1_fill" transform="translate(1009 207.25)" fill="#595959"/>
</g>
<g id="Vector" figma:type="vector">
<use xlink:href="#path2_fill" transform="translate(1016.5 207.25)" fill="#595959"/>
</g>
<g id="Vector" figma:type="vector">
<use xlink:href="#path3_fill" transform="translate(1008.38 213.125)" fill="#595959"/>
</g>
</g>
</g>
<defs>
<path id="path0_fill" d="M 20 10C 20 15.5228 15.5228 20 10 20C 4.47715 20 0 15.5228 0 10C 0 4.47715 4.47715 0 10 0C 15.5228 0 20 4.47715 20 10Z"/>
<path id="path1_fill" d="M 1.25 2.5C 1.125 2.5 0.875 2.5 0.75 2.375C 0.625 2.375 0.5 2.25 0.375 2.125C 0.25 2 0.125 1.875 0.125 1.75C -1.21072e-07 1.625 0 1.375 0 1.25C 0 1.125 -1.21072e-07 0.875 0.125 0.75C 0.25 0.625 0.25 0.5 0.375 0.375C 0.5 0.25 0.625 0.125 0.75 0.125C 0.875 -1.21072e-07 1.125 0 1.25 0C 1.375 0 1.625 -1.21072e-07 1.75 0.125C 1.875 0.25 2 0.25 2.125 0.375C 2.25 0.5 2.375 0.625 2.375 0.75C 2.5 0.875 2.5 1.125 2.5 1.25C 2.5 1.375 2.5 1.625 2.375 1.75C 2.375 1.875 2.25 2 2.125 2.125C 2 2.25 1.875 2.375 1.75 2.375C 1.625 2.5 1.375 2.5 1.25 2.5Z"/>
<path id="path2_fill" d="M 1.25 2.5C 1.125 2.5 0.875 2.5 0.75 2.375C 0.625 2.25 0.5 2.25 0.375 2.125C 0.25 2 0.125 1.875 0.125 1.75C 4.76837e-07 1.625 0 1.375 0 1.25C 0 1.125 4.76837e-07 0.875 0.125 0.75C 0.25 0.625 0.25 0.5 0.375 0.375C 0.5 0.25 0.625 0.125 0.75 0.125C 0.875 -1.19209e-07 1.125 0 1.25 0C 1.375 0 1.625 -1.19209e-07 1.75 0.125C 1.875 0.25 2 0.25 2.125 0.375C 2.25 0.5 2.375 0.625 2.375 0.75C 2.5 0.875 2.5 1.125 2.5 1.25C 2.5 1.375 2.5 1.625 2.375 1.75C 2.25 1.875 2.25 2 2.125 2.125C 2 2.25 1.875 2.375 1.75 2.375C 1.625 2.5 1.375 2.5 1.25 2.5Z"/>
<path id="path3_fill" d="M 5.625 2.875C 6.125 2.875 6.5 2.75 7 2.625C 7.5 2.5 7.875 2.25 8.25 2.125C 8.625 1.875 9 1.625 9.25 1.25C 9.5 0.875 9.875 0.5 10 0.125L 11.125 0.75C 10.875 1.25 10.5 1.75 10.125 2.125C 9.75 2.5 9.25 2.875 8.875 3.25C 8.375 3.5 7.875 3.75 7.375 4C 6.75 4 6.25 4.125 5.625 4.125C 5 4.125 4.5 4 3.875 3.875C 3.375 3.75 2.75 3.5 2.375 3.125C 1.875 2.875 1.5 2.5 1.125 2C 0.625 1.625 0.375 1.125 0 0.625L 1.125 -2.38419e-07C 1.375 0.375 1.625 0.75 1.875 1.125C 2.125 1.5 2.5 1.75 2.875 2C 3.25 2.25 3.625 2.375 4.125 2.5C 4.625 2.75 5.125 2.875 5.625 2.875Z"/>
</defs>
</svg>
