<svg width="11" height="11" viewBox="0 0 11 11" version="1.1" xmlns="http://www.w3.org/2000/svg" xmlns:xlink="http://www.w3.org/1999/xlink">
<title>pinned</title>
<desc>Created using Figma</desc>
<g id="Canvas" transform="translate(-1311 -116)">
<g id="pinned">
<g id="Vector 10">
<use xlink:href="#path0_stroke" transform="translate(1312 117.5)" fill="#333333"/>
</g>
</g>
</g>
<defs>
<path id="path0_stroke" d="M 6.49999 0L 6.85355 -0.353554L 6.49999 -0.707107L 6.14644 -0.353553L 6.49999 0ZM 8.5 2L 8.85355 2.35355L 9.20711 2L 8.85355 1.64645L 8.5 2ZM 5.50001 5.00001L 5.14645 4.64645L 4.7929 5.00001L 5.14645 5.35356L 5.50001 5.00001ZM 6.49999 5.99999L 6.85355 6.35355L 7.2071 5.99999L 6.85355 5.64644L 6.49999 5.99999ZM 5.49999 7L 5.14644 7.35355L 5.49999 7.7071L 5.85355 7.35355L 5.49999 7ZM 1.5 3L 1.14644 2.64645L 0.79289 3L 1.14644 3.35355L 1.5 3ZM 2.5 2L 2.85355 1.64645L 2.5 1.29289L 2.14644 1.64645L 2.5 2ZM 3.5 3.00001L 3.14645 3.35356L 3.5 3.70712L 3.85355 3.35356L 3.5 3.00001ZM 3.5 5L 3.85355 4.64645L 3.85355 4.64645L 3.5 5ZM 6.14644 0.353554L 8.14645 2.35355L 8.85355 1.64645L 6.85355 -0.353554L 6.14644 0.353554ZM 8.14645 1.64645L 5.14645 4.64645L 5.85356 5.35356L 8.85355 2.35355L 8.14645 1.64645ZM 5.14645 5.35356L 6.14644 6.35355L 6.85355 5.64644L 5.85356 4.64645L 5.14645 5.35356ZM 6.14644 5.64644L 5.14644 6.64644L 5.85355 7.35355L 6.85355 6.35355L 6.14644 5.64644ZM 1.85355 3.35355L 2.85355 2.35355L 2.14644 1.64645L 1.14644 2.64645L 1.85355 3.35355ZM 2.14644 2.35355L 3.14645 3.35356L 3.85355 2.64645L 2.85355 1.64645L 2.14644 2.35355ZM 3.85355 3.35356L 6.85355 0.353553L 6.14644 -0.353553L 3.14645 2.64645L 3.85355 3.35356ZM 5.85355 6.64644L 3.85355 4.64645L 3.14645 5.35355L 5.14644 7.35355L 5.85355 6.64644ZM 3.85355 4.64645L 1.85355 2.64645L 1.14644 3.35355L 3.14645 5.35355L 3.85355 4.64645ZM 3.14645 4.64645L -0.353554 8.14645L 0.353554 8.85356L 3.85355 5.35355L 3.14645 4.64645Z"/>
</defs>
</svg>
